<?xml version="1.0" encoding="UTF-8" standalone="no"?>
<!DOCTYPE svg PUBLIC "-//W3C//DTD SVG 1.1//EN"
 "http://www.w3.org/Graphics/SVG/1.1/DTD/svg11.dtd">
<!-- Generated by graphviz version 5.0.0 (20220707.1540)
 -->
<!-- Title: JollyContext Pages: 1 -->
<svg width="756pt" height="289pt"
 viewBox="0.00 0.00 756.20 289.40" xmlns="http://www.w3.org/2000/svg" xmlns:xlink="http://www.w3.org/1999/xlink">
<g id="graph0" class="graph" transform="scale(1 1) rotate(0) translate(21.6 267.8)">
<title>JollyContext</title>
<g id="clust1" class="cluster">
<title>cluster_jolly</title>
<path fill="transparent" stroke="#2e7d32" d="M319,-67.4C319,-67.4 365,-67.4 365,-67.4 371,-67.4 377,-73.4 377,-79.4 377,-79.4 377,-132.2 377,-132.2 377,-138.2 371,-144.2 365,-144.2 365,-144.2 319,-144.2 319,-144.2 313,-144.2 307,-138.2 307,-132.2 307,-132.2 307,-79.4 307,-79.4 307,-73.4 313,-67.4 319,-67.4"/>
<text text-anchor="middle" x="342" y="-127.6" font-family="Times,serif" font-size="14.00" fill="#2e7d32">Jolly</text>
</g>
<g id="clust2" class="cluster">
<title>cluster_legend</title>
<polygon fill="transparent" stroke="gray" stroke-dasharray="5,2" points="459,-168.6 459,-238.2 705,-238.2 705,-168.6 459,-168.6"/>
<text text-anchor="middle" x="582" y="-227" font-family="Times,serif" font-size="8.00">Legend</text>
</g>
<!-- jolly -->
<g id="node1" class="node">
<title>jolly</title>
<polygon fill="#a5d6a7" stroke="black" points="369,-111.4 319,-111.4 315,-107.4 315,-75.4 365,-75.4 369,-79.4 369,-111.4"/>
<polyline fill="none" stroke="black" points="365,-107.4 315,-107.4 "/>
<polyline fill="none" stroke="black" points="365,-107.4 365,-75.4 "/>
<polyline fill="none" stroke="black" points="365,-107.4 369,-111.4 "/>
<text text-anchor="middle" x="342" y="-96.1" font-family="monospace" font-size="9.00">Jolly CLI</text>
<text text-anchor="middle" x="342" y="-85.3" font-family="monospace" font-size="9.00">@dk/jolly</text>
</g>
<!-- saleor_api -->
<g id="node4" class="node">
<title>saleor_api</title>
<polygon fill="#bbdefb" stroke="black" points="80,-36 0,-36 0,0 80,0 80,-36"/>
<text text-anchor="middle" x="40" y="-20.7" font-family="monospace" font-size="9.00">Saleor Cloud API</text>
<text text-anchor="middle" x="40" y="-9.9" font-family="monospace" font-size="9.00">cloud.saleor.io</text>
</g>
<!-- jolly&#45;&gt;saleor_api -->
<g id="edge3" class="edge">
<title>jolly&#45;&gt;saleor_api</title>
<path fill="none" stroke="black" d="M314.93,-99C240.81,-99 40,-99 40,-99 40,-99 40,-46.38 40,-46.38"/>
<polygon fill="black" stroke="black" points="43.5,-46.38 40,-36.38 36.5,-46.38 43.5,-46.38"/>
<text text-anchor="middle" x="75.87" y="-53.1" font-family="monospace" font-size="7.00">REST: orgs/projects/envs</text>
</g>
<!-- saleor_auth -->
<g id="node5" class="node">
<title>saleor_auth</title>
<polygon fill="#bbdefb" stroke="black" points="210.97,-36 109.03,-36 109.03,0 210.97,0 210.97,-36"/>
<text text-anchor="middle" x="160" y="-20.7" font-family="monospace" font-size="9.00">Saleor Auth (Keycloak)</text>
<text text-anchor="middle" x="160" y="-9.9" font-family="monospace" font-size="9.00">auth.saleor.io</text>
</g>
<!-- jolly&#45;&gt;saleor_auth -->
<g id="edge4" class="edge">
<title>jolly&#45;&gt;saleor_auth</title>
<path fill="none" stroke="black" d="M314.75,-87C263.98,-87 160,-87 160,-87 160,-87 160,-46.13 160,-46.13"/>
<polygon fill="black" stroke="black" points="163.5,-46.13 160,-36.13 156.5,-46.13 163.5,-46.13"/>
<text text-anchor="middle" x="202.79" y="-53.1" font-family="monospace" font-size="7.00">OAuth2 device grant + refresh</text>
</g>
<!-- saleor_gql -->
<g id="node6" class="node">
<title>saleor_gql</title>
<polygon fill="#bbdefb" stroke="black" points="338.48,-36 239.52,-36 239.52,0 338.48,0 338.48,-36"/>
<text text-anchor="middle" x="289" y="-20.7" font-family="monospace" font-size="9.00">Saleor Store GraphQL</text>
<text text-anchor="middle" x="289" y="-9.9" font-family="monospace" font-size="9.00">*.saleor.cloud/graphql/</text>
</g>
<!-- jolly&#45;&gt;saleor_gql -->
<g id="edge5" class="edge">
<title>jolly&#45;&gt;saleor_gql</title>
<path fill="none" stroke="black" d="M326.74,-75.15C326.74,-75.15 326.74,-46.08 326.74,-46.08"/>
<polygon fill="black" stroke="black" points="330.24,-46.08 326.74,-36.08 323.24,-46.08 330.24,-46.08"/>
<text text-anchor="middle" x="325.2" y="-53.1" font-family="monospace" font-size="7.00">GraphQL: stock, appInstall</text>
</g>
<!-- github -->
<g id="node7" class="node">
<title>github</title>
<polygon fill="#bbdefb" stroke="black" points="425.25,-36 368.75,-36 368.75,0 425.25,0 425.25,-36"/>
<text text-anchor="middle" x="397" y="-20.7" font-family="monospace" font-size="9.00">GitHub</text>
<text text-anchor="middle" x="397" y="-9.9" font-family="monospace" font-size="9.00">github.com</text>
</g>
<!-- jolly&#45;&gt;github -->
<g id="edge6" class="edge">
<title>jolly&#45;&gt;github</title>
<path fill="none" stroke="black" d="M353.56,-75.15C353.56,-52.83 353.56,-18 353.56,-18 353.56,-18 358.75,-18 358.75,-18"/>
<polygon fill="black" stroke="black" points="358.75,-21.5 368.75,-18 358.75,-14.5 358.75,-21.5"/>
<text text-anchor="middle" x="432.96" y="-53.1" font-family="monospace" font-size="7.00">git clone saleor/storefront</text>
</g>
<!-- vercel -->
<g id="node8" class="node">
<title>vercel</title>
<polygon fill="#bbdefb" stroke="black" points="531.23,-36 474.77,-36 474.77,0 531.23,0 531.23,-36"/>
<text text-anchor="middle" x="503" y="-20.7" font-family="monospace" font-size="9.00">Vercel CLI</text>
<text text-anchor="middle" x="503" y="-9.9" font-family="monospace" font-size="9.00">npx vercel</text>
</g>
<!-- jolly&#45;&gt;vercel -->
<g id="edge7" class="edge">
<title>jolly&#45;&gt;vercel</title>
<path fill="none" stroke="black" d="M369.14,-87C413.78,-87 497.82,-87 497.82,-87 497.82,-87 497.82,-46.13 497.82,-46.13"/>
<polygon fill="black" stroke="black" points="501.32,-46.13 497.82,-36.13 494.32,-46.13 501.32,-46.13"/>
<text text-anchor="middle" x="538.86" y="-53.1" font-family="monospace" font-size="7.00">spawn: npx vercel deploy</text>
</g>
<!-- configurator -->
<g id="node9" class="node">
<title>configurator</title>
<polygon fill="#bbdefb" stroke="black" points="655.26,-36 562.74,-36 562.74,0 655.26,0 655.26,-36"/>
<text text-anchor="middle" x="609" y="-20.7" font-family="monospace" font-size="9.00">@saleor/configurator</text>
<text text-anchor="middle" x="609" y="-9.9" font-family="monospace" font-size="9.00">npx configurator</text>
</g>
<!-- jolly&#45;&gt;configurator -->
<g id="edge8" class="edge">
<title>jolly&#45;&gt;configurator</title>
<path fill="none" stroke="black" d="M369.19,-99C433.06,-99 587.33,-99 587.33,-99 587.33,-99 587.33,-46.38 587.33,-46.38"/>
<polygon fill="black" stroke="black" points="590.83,-46.38 587.33,-36.38 583.83,-46.38 590.83,-46.38"/>
<text text-anchor="middle" x="643.21" y="-53.1" font-family="monospace" font-size="7.00">spawn: npx configurator</text>
</g>
<!-- agent -->
<g id="node2" class="node">
<title>agent</title>
<polygon fill="#ffe0b2" stroke="black" points="320.23,-212.6 251.77,-212.6 251.77,-176.6 320.23,-176.6 320.23,-212.6"/>
<text text-anchor="middle" x="286" y="-197.3" font-family="monospace" font-size="9.00">AI Agent</text>
<text text-anchor="middle" x="286" y="-186.5" font-family="monospace" font-size="9.00">(coding agent)</text>
</g>
<!-- agent&#45;&gt;jolly -->
<g id="edge1" class="edge">
<title>agent&#45;&gt;jolly</title>
<path fill="none" stroke="black" d="M320.24,-194C330.52,-194 339.12,-194 339.12,-194 339.12,-194 339.12,-121.85 339.12,-121.85"/>
<polygon fill="black" stroke="black" points="342.62,-121.85 339.12,-111.85 335.62,-121.85 342.62,-121.85"/>
<text text-anchor="middle" x="324.86" y="-154.3" font-family="monospace" font-size="7.00">npx @dk/jolly &lt;command&gt;</text>
</g>
<!-- human -->
<g id="node3" class="node">
<title>human</title>
<polygon fill="#ffe0b2" stroke="black" points="437.74,-212.6 358.26,-212.6 358.26,-176.6 437.74,-176.6 437.74,-212.6"/>
<text text-anchor="middle" x="398" y="-197.3" font-family="monospace" font-size="9.00">Human Customer</text>
<text text-anchor="middle" x="398" y="-186.5" font-family="monospace" font-size="9.00">(account owner)</text>
</g>
<!-- human&#45;&gt;jolly -->
<g id="edge2" class="edge">
<title>human&#45;&gt;jolly</title>
<path fill="none" stroke="black" d="M363.56,-176.51C363.56,-176.51 363.56,-121.68 363.56,-121.68"/>
<polygon fill="black" stroke="black" points="367.06,-121.68 363.56,-111.68 360.06,-121.68 367.06,-121.68"/>
<text text-anchor="middle" x="435.31" y="-154.3" font-family="monospace" font-size="7.00">interactive terminal (TTY)</text>
</g>
<!-- legend_person -->
<g id="node10" class="node">
<title>legend_person</title>
<polygon fill="#ffe0b2" stroke="black" points="697.44,-212.6 640.56,-212.6 640.56,-176.6 697.44,-176.6 697.44,-212.6"/>
<text text-anchor="middle" x="669" y="-192.5" font-family="monospace" font-size="7.00">Person / Actor</text>
</g>
<!-- legend_ext -->
<g id="node11" class="node">
<title>legend_ext</title>
<polygon fill="#bbdefb" stroke="black" points="612.07,-212.6 549.92,-212.6 549.92,-176.6 612.07,-176.6 612.07,-212.6"/>
<text text-anchor="middle" x="581" y="-192.5" font-family="monospace" font-size="7.00">External System</text>
</g>
<!-- legend_jolly -->
<g id="node12" class="node">
<title>legend_jolly</title>
<polygon fill="#a5d6a7" stroke="black" points="521,-212.6 471,-212.6 467,-208.6 467,-176.6 517,-176.6 521,-180.6 521,-212.6"/>
<polyline fill="none" stroke="black" points="517,-208.6 467,-208.6 "/>
<polyline fill="none" stroke="black" points="517,-208.6 517,-176.6 "/>
<polyline fill="none" stroke="black" points="517,-208.6 521,-212.6 "/>
<text text-anchor="middle" x="494" y="-192.5" font-family="monospace" font-size="7.00">Jolly System</text>
</g>
</g>
</svg>
