<svg version="1.1" baseProfile="full" width="1117.0" height="1280.0" viewBox="0 0 1117 1280" xmlns="http://www.w3.org/2000/svg" xmlns:xlink="http://www.w3.org/1999/xlink" xmlns:ev="http://www.w3.org/2001/xml-events">
	<desc ># Jolly System Context — Nomnoml format
	# View: nomnoml jolly-context.nomnoml &amp;&amp; chafa out.png
	
	# Style
	#stroke: #333
	#fill: #fff
	#background: transparent
	#font: monospace
	#fontSize: 11
	#leading: 4
	#arrowSize: 0.5
	#bendSize: 0.3
	#lineWidth: 1.5
	#padding: 12
	#spacing: 40
	#edges: hard
	#gutter: 8
	
	[&lt;frame&gt; Jolly System Context |
	  [&lt;actor&gt; AI Agent] -&gt; [Jolly CLI]
	  [&lt;actor&gt; Human Customer] -&gt; [Jolly CLI]
	
	  [&lt;box&gt; Jolly CLI |
	    @dk/jolly
	    --
	    login | logout | auth status
	    init | start | doctor | upgrade
	    skills | create store | completion
	  ]
	
	  [Jolly CLI] -&gt; [Saleor Cloud API]
	  [Jolly CLI] -&gt; [Saleor Auth]
	  [Jolly CLI] -&gt; [Saleor GraphQL]
	  [Jolly CLI] -&gt; [GitHub]
	  [Jolly CLI] -&gt; [Vercel CLI]
	  [Jolly CLI] -&gt; [@saleor/configurator]
	
	  [&lt;database&gt; Saleor Cloud API | cloud.saleor.io]
	  [&lt;database&gt; Saleor Auth | auth.saleor.io]
	  [&lt;database&gt; Saleor GraphQL | *.saleor.cloud/graphql/]
	  [&lt;database&gt; GitHub | github.com]
	  [&lt;database&gt; Vercel CLI | npx vercel]
	  [&lt;database&gt; @saleor/configurator | npx configurator]
	]
	</desc>
	<g stroke-width="1.0" text-align="left" font="12pt Helvetica, Arial, sans-serif" font-size="11pt" font-family="monospace" font-weight="normal" font-style="normal">
		<g font-family="monospace" font-size="11pt" font-weight="bold" font-style="normal" stroke-width="1.5" stroke-linejoin="round" stroke-linecap="round" stroke="#333">
			<g stroke="transparent" fill="transparent">
				<rect x="0.0" y="0.0" height="1280.0" width="1117.0" stroke="none"></rect>
			</g>
			<g transform="translate(12, 12)" fill="#333">
				<g transform="translate(8, 8)">
					<g data-name="Jolly System Context">
						<g fill="#fff" stroke="#333" data-name="Jolly System Context">
							<rect x="0.0" y="0.0" height="1240.0" width="1077.0" data-name="Jolly System Context"></rect>
							<path d="M0.0 68.0 L158.0 68.0 L192.0 34.0 L192.0 0.0" fill="none" data-name="Jolly System Context"></path>
						</g>
						<g transform="translate(0, 0)" font-family="monospace" font-size="11pt" font-weight="normal" font-style="normal" data-name="Jolly System Context" data-compartment="0">
							<g transform="translate(12, 12)" fill="#333" text-align="left" data-name="Jolly System Context" data-compartment="0">
								<text x="0.0" y="27.5" stroke="none" data-name="Jolly System Context" data-compartment="0">Jolly System Context</text>
								
							</g>
						</g>
						<g transform="translate(0, 68)" font-family="monospace" font-size="11pt" font-weight="normal" font-style="normal" data-name="Jolly System Context" data-compartment="1">
							<g transform="translate(12, 12)" fill="#333" data-name="Jolly System Context" data-compartment="1">
								<g transform="translate(8, 8)" fill="#333" font-family="monospace" font-size="11pt" font-weight="normal" font-style="normal" data-name="Jolly System Context" data-compartment="1">
									<path d="M458.3 104.0 L458.3 124.0 L480.9 243.0" fill="none" data-name="Jolly System Context" data-compartment="1"></path>
									<path d="M477.6 240.2 L480.9 243.0 L482.9 239.2 L481.5 246.2 Z" data-name="Jolly System Context" data-compartment="1"></path>
									<path d="M615.8 104.0 L615.8 124.0 L593.1 243.0" fill="none" data-name="Jolly System Context" data-compartment="1"></path>
									<path d="M591.1 239.2 L593.1 243.0 L596.4 240.2 L592.5 246.2 Z" data-name="Jolly System Context" data-compartment="1"></path>
									<path d="M481.5 587.6 L73.5 952.0 L73.5 968.7" fill="none" data-name="Jolly System Context" data-compartment="1"></path>
									<path d="M70.8 965.3 L73.5 968.7 L76.2 965.3 L73.5 972.0 Z" data-name="Jolly System Context" data-compartment="1"></path>
									<path d="M481.5 617.6 L248.5 952.0 L248.5 968.7" fill="none" data-name="Jolly System Context" data-compartment="1"></path>
									<path d="M245.8 965.3 L248.5 968.7 L251.2 965.3 L248.5 972.0 Z" data-name="Jolly System Context" data-compartment="1"></path>
									<path d="M481.5 785.1 L444.0 952.0 L444.0 968.7" fill="none" data-name="Jolly System Context" data-compartment="1"></path>
									<path d="M441.3 965.3 L444.0 968.7 L446.7 965.3 L444.0 972.0 Z" data-name="Jolly System Context" data-compartment="1"></path>
									<path d="M592.5 785.1 L630.0 952.0 L630.0 968.7" fill="none" data-name="Jolly System Context" data-compartment="1"></path>
									<path d="M627.3 965.3 L630.0 968.7 L632.7 965.3 L630.0 972.0 Z" data-name="Jolly System Context" data-compartment="1"></path>
									<path d="M592.5 636.0 L771.5 952.0 L771.5 968.7" fill="none" data-name="Jolly System Context" data-compartment="1"></path>
									<path d="M768.8 965.3 L771.5 968.7 L774.2 965.3 L771.5 972.0 Z" data-name="Jolly System Context" data-compartment="1"></path>
									<path d="M592.5 593.8 L949.0 952.0 L949.0 968.7" fill="none" data-name="Jolly System Context" data-compartment="1"></path>
									<path d="M946.3 965.3 L949.0 968.7 L951.7 965.3 L949.0 972.0 Z" data-name="Jolly System Context" data-compartment="1"></path>
									<g data-name="AI Agent">
										<g fill="#fff" stroke="#333" data-name="AI Agent">
											<circle r="6.0" cx="458.3" cy="18.0" data-name="AI Agent"></circle>
											<path d="M458.3 24.0 L458.3 36.0" fill="none" data-name="AI Agent"></path>
											<path d="M452.3 30.0 L464.3 30.0" fill="none" data-name="AI Agent"></path>
											<path d="M452.3 42.0 L458.3 36.0 L464.3 42.0" fill="none" data-name="AI Agent"></path>
										</g>
										<g transform="translate(415.75, 36)" font-family="monospace" font-size="11pt" font-weight="normal" font-style="normal" data-name="AI Agent" data-compartment="0">
											<g transform="translate(12, 12)" fill="#333" text-align="center" data-name="AI Agent" data-compartment="0">
												<text x="30.5" y="27.5" stroke="none" text-anchor="middle" data-name="AI Agent" data-compartment="0">AI Agent</text>
												
											</g>
										</g>
									</g>
									<g data-name="Jolly CLI">
										<g fill="#fff" stroke="#333" data-name="Jolly CLI">
											<rect x="481.5" y="144.0" height="788.0" width="111.0" data-name="Jolly CLI"></rect>
											<path d="M481.5 212.0 L592.5 212.0" fill="none" data-name="Jolly CLI"></path>
											<path d="M481.5 368.0 L592.5 368.0" fill="none" data-name="Jolly CLI"></path>
											<path d="M481.5 436.0 L592.5 436.0" fill="none" data-name="Jolly CLI"></path>
											<path d="M481.5 548.0 L592.5 548.0" fill="none" data-name="Jolly CLI"></path>
											<path d="M481.5 616.0 L592.5 616.0" fill="none" data-name="Jolly CLI"></path>
											<path d="M481.5 684.0 L592.5 684.0" fill="none" data-name="Jolly CLI"></path>
											<path d="M481.5 796.0 L592.5 796.0" fill="none" data-name="Jolly CLI"></path>
											<path d="M481.5 864.0 L592.5 864.0" fill="none" data-name="Jolly CLI"></path>
										</g>
										<g transform="translate(481.5, 144)" font-family="monospace" font-size="11pt" font-weight="bold" font-style="normal" data-name="Jolly CLI" data-compartment="0">
											<g transform="translate(12, 12)" fill="#333" text-align="center" data-name="Jolly CLI" data-compartment="0">
												<text x="43.5" y="27.5" stroke="none" text-anchor="middle" data-name="Jolly CLI" data-compartment="0">Jolly CLI</text>
												
											</g>
										</g>
										<g transform="translate(481.5, 212)" font-family="monospace" font-size="11pt" font-weight="normal" font-style="normal" data-name="Jolly CLI" data-compartment="1">
											<g transform="translate(12, 12)" fill="#333" text-align="left" data-name="Jolly CLI" data-compartment="1">
												<text x="0.0" y="27.5" stroke="none" data-name="Jolly CLI" data-compartment="1">@dk/jolly</text>
												<text x="0.0" y="71.5" stroke="none" data-name="Jolly CLI" data-compartment="1">--</text>
												<text x="0.0" y="115.5" stroke="none" data-name="Jolly CLI" data-compartment="1">login</text>
												
											</g>
										</g>
										<g transform="translate(481.5, 368)" font-family="monospace" font-size="11pt" font-weight="normal" font-style="normal" data-name="Jolly CLI" data-compartment="2">
											<g transform="translate(12, 12)" fill="#333" text-align="left" data-name="Jolly CLI" data-compartment="2">
												<text x="0.0" y="27.5" stroke="none" data-name="Jolly CLI" data-compartment="2">logout</text>
												
											</g>
										</g>
										<g transform="translate(481.5, 436)" font-family="monospace" font-size="11pt" font-weight="normal" font-style="normal" data-name="Jolly CLI" data-compartment="3">
											<g transform="translate(12, 12)" fill="#333" text-align="left" data-name="Jolly CLI" data-compartment="3">
												<text x="0.0" y="27.5" stroke="none" data-name="Jolly CLI" data-compartment="3">auth status</text>
												<text x="0.0" y="71.5" stroke="none" data-name="Jolly CLI" data-compartment="3">init</text>
												
											</g>
										</g>
										<g transform="translate(481.5, 548)" font-family="monospace" font-size="11pt" font-weight="normal" font-style="normal" data-name="Jolly CLI" data-compartment="4">
											<g transform="translate(12, 12)" fill="#333" text-align="left" data-name="Jolly CLI" data-compartment="4">
												<text x="0.0" y="27.5" stroke="none" data-name="Jolly CLI" data-compartment="4">start</text>
												
											</g>
										</g>
										<g transform="translate(481.5, 616)" font-family="monospace" font-size="11pt" font-weight="normal" font-style="normal" data-name="Jolly CLI" data-compartment="5">
											<g transform="translate(12, 12)" fill="#333" text-align="left" data-name="Jolly CLI" data-compartment="5">
												<text x="0.0" y="27.5" stroke="none" data-name="Jolly CLI" data-compartment="5">doctor</text>
												
											</g>
										</g>
										<g transform="translate(481.5, 684)" font-family="monospace" font-size="11pt" font-weight="normal" font-style="normal" data-name="Jolly CLI" data-compartment="6">
											<g transform="translate(12, 12)" fill="#333" text-align="left" data-name="Jolly CLI" data-compartment="6">
												<text x="0.0" y="27.5" stroke="none" data-name="Jolly CLI" data-compartment="6">upgrade</text>
												<text x="0.0" y="71.5" stroke="none" data-name="Jolly CLI" data-compartment="6">skills</text>
												
											</g>
										</g>
										<g transform="translate(481.5, 796)" font-family="monospace" font-size="11pt" font-weight="normal" font-style="normal" data-name="Jolly CLI" data-compartment="7">
											<g transform="translate(12, 12)" fill="#333" text-align="left" data-name="Jolly CLI" data-compartment="7">
												<text x="0.0" y="27.5" stroke="none" data-name="Jolly CLI" data-compartment="7">create store</text>
												
											</g>
										</g>
										<g transform="translate(481.5, 864)" font-family="monospace" font-size="11pt" font-weight="normal" font-style="normal" data-name="Jolly CLI" data-compartment="8">
											<g transform="translate(12, 12)" fill="#333" text-align="left" data-name="Jolly CLI" data-compartment="8">
												<text x="0.0" y="27.5" stroke="none" data-name="Jolly CLI" data-compartment="8">completion</text>
												
											</g>
										</g>
									</g>
									<g data-name="Human Customer">
										<g fill="#fff" stroke="#333" data-name="Human Customer">
											<circle r="6.0" cx="615.8" cy="18.0" data-name="Human Customer"></circle>
											<path d="M615.8 24.0 L615.8 36.0" fill="none" data-name="Human Customer"></path>
											<path d="M609.8 30.0 L621.8 30.0" fill="none" data-name="Human Customer"></path>
											<path d="M609.8 42.0 L615.8 36.0 L621.8 42.0" fill="none" data-name="Human Customer"></path>
										</g>
										<g transform="translate(540.75, 36)" font-family="monospace" font-size="11pt" font-weight="normal" font-style="normal" data-name="Human Customer" data-compartment="0">
											<g transform="translate(12, 12)" fill="#333" text-align="center" data-name="Human Customer" data-compartment="0">
												<text x="63.0" y="27.5" stroke="none" text-anchor="middle" data-name="Human Customer" data-compartment="0">Human Customer</text>
												
											</g>
										</g>
									</g>
									<g data-name="Saleor Cloud API">
										<g fill="#fff" stroke="#333" data-name="Saleor Cloud API">
											<rect x="0.0" y="984.0" height="136.0" width="147.0" stroke="none" data-name="Saleor Cloud API"></rect>
											<path d="M0.0 984.0 L0.0 1120.0" fill="none" data-name="Saleor Cloud API"></path>
											<path d="M147.0 984.0 L147.0 1120.0" fill="none" data-name="Saleor Cloud API"></path>
											<ellipse cx="73.5" cy="984.0" rx="73.5" ry="9.0" data-name="Saleor Cloud API"></ellipse>
											<path d="M147.0 1120.0 L146.9 1120.4 L146.6 1120.9 L146.2 1121.3 L145.5 1121.8 L144.7 1122.2 L143.7 1122.7 L142.6 1123.1 L141.2 1123.5 L139.7 1123.9 L138.0 1124.3 L136.2 1124.7 L134.2 1125.1 L132.1 1125.4 L129.8 1125.8 L127.4 1126.1 L124.8 1126.4 L122.1 1126.7 L119.3 1127.0 L116.4 1127.3 L113.4 1127.6 L110.2 1127.8 L107.0 1128.0 L103.7 1128.2 L100.4 1128.4 L96.9 1128.5 L93.4 1128.7 L89.9 1128.8 L86.3 1128.9 L82.6 1128.9 L79.0 1129.0 L75.3 1129.0 L71.7 1129.0 L68.0 1129.0 L64.4 1128.9 L60.7 1128.9 L57.1 1128.8 L53.6 1128.7 L50.1 1128.5 L46.6 1128.4 L43.3 1128.2 L40.0 1128.0 L36.7 1127.8 L33.6 1127.6 L30.6 1127.3 L27.7 1127.0 L24.9 1126.7 L22.2 1126.4 L19.6 1126.1 L17.2 1125.8 L14.9 1125.4 L12.8 1125.1 L10.8 1124.7 L9.0 1124.3 L7.3 1123.9 L5.8 1123.5 L4.4 1123.1 L3.3 1122.7 L2.3 1122.2 L1.5 1121.8 L0.8 1121.3 L0.4 1120.9 L0.1 1120.4 L0.0 1120.0" data-name="Saleor Cloud API"></path>
											<path d="M0.0 1052.0 L1.6 1053.9 L6.4 1055.7 L14.0 1057.3 L24.3 1058.7 L36.7 1059.8 L50.8 1060.6 L65.8 1061.0 L81.2 1061.0 L96.2 1060.6 L110.2 1059.8 L122.7 1058.7 L133.0 1057.3 L140.6 1055.7 L145.4 1053.9 L147.0 1052.0" fill="none" data-name="Saleor Cloud API"></path>
										</g>
										<g transform="translate(0, 990)" font-family="monospace" font-size="11pt" font-weight="bold" font-style="normal" data-name="Saleor Cloud API" data-compartment="0">
											<g transform="translate(12, 12)" fill="#333" text-align="center" data-name="Saleor Cloud API" data-compartment="0">
												<text x="61.5" y="27.5" stroke="none" text-anchor="middle" data-name="Saleor Cloud API" data-compartment="0">Saleor Cloud API</text>
												
											</g>
										</g>
										<g transform="translate(0, 1058)" font-family="monospace" font-size="11pt" font-weight="normal" font-style="normal" data-name="Saleor Cloud API" data-compartment="1">
											<g transform="translate(12, 12)" fill="#333" text-align="center" data-name="Saleor Cloud API" data-compartment="1">
												<text x="61.5" y="27.5" stroke="none" text-anchor="middle" data-name="Saleor Cloud API" data-compartment="1">cloud.saleor.io</text>
												
											</g>
										</g>
									</g>
									<g data-name="Saleor Auth">
										<g fill="#fff" stroke="#333" data-name="Saleor Auth">
											<rect x="187.0" y="984.0" height="136.0" width="123.0" stroke="none" data-name="Saleor Auth"></rect>
											<path d="M187.0 984.0 L187.0 1120.0" fill="none" data-name="Saleor Auth"></path>
											<path d="M310.0 984.0 L310.0 1120.0" fill="none" data-name="Saleor Auth"></path>
											<ellipse cx="248.5" cy="984.0" rx="61.5" ry="9.0" data-name="Saleor Auth"></ellipse>
											<path d="M310.0 1120.0 L309.9 1120.4 L309.7 1120.9 L309.3 1121.3 L308.8 1121.8 L308.1 1122.2 L307.3 1122.7 L306.3 1123.1 L305.2 1123.5 L303.9 1123.9 L302.5 1124.3 L301.0 1124.7 L299.3 1125.1 L297.5 1125.4 L295.6 1125.8 L293.6 1126.1 L291.4 1126.4 L289.2 1126.7 L286.8 1127.0 L284.4 1127.3 L281.9 1127.6 L279.2 1127.8 L276.6 1128.0 L273.8 1128.2 L271.0 1128.4 L268.1 1128.5 L265.2 1128.7 L262.2 1128.8 L259.2 1128.9 L256.1 1128.9 L253.1 1129.0 L250.0 1129.0 L247.0 1129.0 L243.9 1129.0 L240.9 1128.9 L237.8 1128.9 L234.8 1128.8 L231.8 1128.7 L228.9 1128.5 L226.0 1128.4 L223.2 1128.2 L220.4 1128.0 L217.7 1127.8 L215.1 1127.6 L212.6 1127.3 L210.2 1127.0 L207.8 1126.7 L205.6 1126.4 L203.4 1126.1 L201.4 1125.8 L199.5 1125.4 L197.7 1125.1 L196.0 1124.7 L194.5 1124.3 L193.1 1123.9 L191.8 1123.5 L190.7 1123.1 L189.7 1122.7 L188.9 1122.2 L188.2 1121.8 L187.7 1121.3 L187.3 1120.9 L187.1 1120.4 L187.0 1120.0" data-name="Saleor Auth"></path>
											<path d="M187.0 1052.0 L188.3 1053.9 L192.3 1055.7 L198.7 1057.3 L207.3 1058.7 L217.8 1059.8 L229.5 1060.6 L242.1 1061.0 L254.9 1061.0 L267.5 1060.6 L279.3 1059.8 L289.7 1058.7 L298.3 1057.3 L304.7 1055.7 L308.7 1053.9 L310.0 1052.0" fill="none" data-name="Saleor Auth"></path>
										</g>
										<g transform="translate(187, 990)" font-family="monospace" font-size="11pt" font-weight="bold" font-style="normal" data-name="Saleor Auth" data-compartment="0">
											<g transform="translate(12, 12)" fill="#333" text-align="center" data-name="Saleor Auth" data-compartment="0">
												<text x="49.5" y="27.5" stroke="none" text-anchor="middle" data-name="Saleor Auth" data-compartment="0">Saleor Auth</text>
												
											</g>
										</g>
										<g transform="translate(187, 1058)" font-family="monospace" font-size="11pt" font-weight="normal" font-style="normal" data-name="Saleor Auth" data-compartment="1">
											<g transform="translate(12, 12)" fill="#333" text-align="center" data-name="Saleor Auth" data-compartment="1">
												<text x="49.5" y="27.5" stroke="none" text-anchor="middle" data-name="Saleor Auth" data-compartment="1">auth.saleor.io</text>
												
											</g>
										</g>
									</g>
									<g data-name="Saleor GraphQL">
										<g fill="#fff" stroke="#333" data-name="Saleor GraphQL">
											<rect x="350.0" y="984.0" height="136.0" width="188.0" stroke="none" data-name="Saleor GraphQL"></rect>
											<path d="M350.0 984.0 L350.0 1120.0" fill="none" data-name="Saleor GraphQL"></path>
											<path d="M538.0 984.0 L538.0 1120.0" fill="none" data-name="Saleor GraphQL"></path>
											<ellipse cx="444.0" cy="984.0" rx="94.0" ry="9.0" data-name="Saleor GraphQL"></ellipse>
											<path d="M538.0 1120.0 L537.9 1120.4 L537.5 1120.9 L537.0 1121.3 L536.1 1121.8 L535.1 1122.2 L533.8 1122.7 L532.3 1123.1 L530.6 1123.5 L528.7 1123.9 L526.6 1124.3 L524.2 1124.7 L521.7 1125.1 L518.9 1125.4 L516.0 1125.8 L512.9 1126.1 L509.6 1126.4 L506.2 1126.7 L502.6 1127.0 L498.9 1127.3 L495.0 1127.6 L491.0 1127.8 L486.9 1128.0 L482.7 1128.2 L478.3 1128.4 L473.9 1128.5 L469.5 1128.7 L464.9 1128.8 L460.3 1128.9 L455.7 1128.9 L451.0 1129.0 L446.3 1129.0 L441.7 1129.0 L437.0 1129.0 L432.3 1128.9 L427.7 1128.9 L423.1 1128.8 L418.5 1128.7 L414.1 1128.5 L409.7 1128.4 L405.3 1128.2 L401.1 1128.0 L397.0 1127.8 L393.0 1127.6 L389.1 1127.3 L385.4 1127.0 L381.8 1126.7 L378.4 1126.4 L375.1 1126.1 L372.0 1125.8 L369.1 1125.4 L366.3 1125.1 L363.8 1124.7 L361.4 1124.3 L359.3 1123.9 L357.4 1123.5 L355.7 1123.1 L354.2 1122.7 L352.9 1122.2 L351.9 1121.8 L351.0 1121.3 L350.5 1120.9 L350.1 1120.4 L350.0 1120.0" data-name="Saleor GraphQL"></path>
											<path d="M350.0 1052.0 L352.1 1053.9 L358.1 1055.7 L368.0 1057.3 L381.1 1058.7 L397.0 1059.8 L415.0 1060.6 L434.2 1061.0 L453.8 1061.0 L473.0 1060.6 L491.0 1059.8 L506.9 1058.7 L520.0 1057.3 L529.9 1055.7 L535.9 1053.9 L538.0 1052.0" fill="none" data-name="Saleor GraphQL"></path>
										</g>
										<g transform="translate(350, 990)" font-family="monospace" font-size="11pt" font-weight="bold" font-style="normal" data-name="Saleor GraphQL" data-compartment="0">
											<g transform="translate(12, 12)" fill="#333" text-align="center" data-name="Saleor GraphQL" data-compartment="0">
												<text x="82.0" y="27.5" stroke="none" text-anchor="middle" data-name="Saleor GraphQL" data-compartment="0">Saleor GraphQL</text>
												
											</g>
										</g>
										<g transform="translate(350, 1058)" font-family="monospace" font-size="11pt" font-weight="normal" font-style="normal" data-name="Saleor GraphQL" data-compartment="1">
											<g transform="translate(12, 12)" fill="#333" text-align="center" data-name="Saleor GraphQL" data-compartment="1">
												<text x="82.0" y="27.5" stroke="none" text-anchor="middle" data-name="Saleor GraphQL" data-compartment="1">*.saleor.cloud/graphql/</text>
												
											</g>
										</g>
									</g>
									<g data-name="GitHub">
										<g fill="#fff" stroke="#333" data-name="GitHub">
											<rect x="578.0" y="984.0" height="136.0" width="104.0" stroke="none" data-name="GitHub"></rect>
											<path d="M578.0 984.0 L578.0 1120.0" fill="none" data-name="GitHub"></path>
											<path d="M682.0 984.0 L682.0 1120.0" fill="none" data-name="GitHub"></path>
											<ellipse cx="630.0" cy="984.0" rx="52.0" ry="9.0" data-name="GitHub"></ellipse>
											<path d="M682.0 1120.0 L681.9 1120.4 L681.7 1120.9 L681.4 1121.3 L681.0 1121.8 L680.4 1122.2 L679.7 1122.7 L678.9 1123.1 L677.9 1123.5 L676.9 1123.9 L675.7 1124.3 L674.4 1124.7 L673.0 1125.1 L671.5 1125.4 L669.8 1125.8 L668.1 1126.1 L666.3 1126.4 L664.4 1126.7 L662.4 1127.0 L660.4 1127.3 L658.2 1127.6 L656.0 1127.8 L653.7 1128.0 L651.4 1128.2 L649.0 1128.4 L646.6 1128.5 L644.1 1128.7 L641.6 1128.8 L639.0 1128.9 L636.5 1128.9 L633.9 1129.0 L631.3 1129.0 L628.7 1129.0 L626.1 1129.0 L623.5 1128.9 L621.0 1128.9 L618.4 1128.8 L615.9 1128.7 L613.4 1128.5 L611.0 1128.4 L608.6 1128.2 L606.3 1128.0 L604.0 1127.8 L601.8 1127.6 L599.6 1127.3 L597.6 1127.0 L595.6 1126.7 L593.7 1126.4 L591.9 1126.1 L590.2 1125.8 L588.5 1125.4 L587.0 1125.1 L585.6 1124.7 L584.3 1124.3 L583.1 1123.9 L582.1 1123.5 L581.1 1123.1 L580.3 1122.7 L579.6 1122.2 L579.0 1121.8 L578.6 1121.3 L578.3 1120.9 L578.1 1120.4 L578.0 1120.0" data-name="GitHub"></path>
											<path d="M578.0 1052.0 L579.1 1053.9 L582.5 1055.7 L587.9 1057.3 L595.2 1058.7 L604.0 1059.8 L613.9 1060.6 L624.6 1061.0 L635.4 1061.0 L646.1 1060.6 L656.0 1059.8 L664.8 1058.7 L672.1 1057.3 L677.5 1055.7 L680.9 1053.9 L682.0 1052.0" fill="none" data-name="GitHub"></path>
										</g>
										<g transform="translate(578, 990)" font-family="monospace" font-size="11pt" font-weight="bold" font-style="normal" data-name="GitHub" data-compartment="0">
											<g transform="translate(12, 12)" fill="#333" text-align="center" data-name="GitHub" data-compartment="0">
												<text x="40.0" y="27.5" stroke="none" text-anchor="middle" data-name="GitHub" data-compartment="0">GitHub</text>
												
											</g>
										</g>
										<g transform="translate(578, 1058)" font-family="monospace" font-size="11pt" font-weight="normal" font-style="normal" data-name="GitHub" data-compartment="1">
											<g transform="translate(12, 12)" fill="#333" text-align="center" data-name="GitHub" data-compartment="1">
												<text x="40.0" y="27.5" stroke="none" text-anchor="middle" data-name="GitHub" data-compartment="1">github.com</text>
												
											</g>
										</g>
									</g>
									<g data-name="Vercel CLI">
										<g fill="#fff" stroke="#333" data-name="Vercel CLI">
											<rect x="722.0" y="984.0" height="136.0" width="99.0" stroke="none" data-name="Vercel CLI"></rect>
											<path d="M722.0 984.0 L722.0 1120.0" fill="none" data-name="Vercel CLI"></path>
											<path d="M821.0 984.0 L821.0 1120.0" fill="none" data-name="Vercel CLI"></path>
											<ellipse cx="771.5" cy="984.0" rx="49.5" ry="9.0" data-name="Vercel CLI"></ellipse>
											<path d="M821.0 1120.0 L820.9 1120.4 L820.8 1120.9 L820.4 1121.3 L820.0 1121.8 L819.5 1122.2 L818.8 1122.7 L818.0 1123.1 L817.1 1123.5 L816.1 1123.9 L815.0 1124.3 L813.7 1124.7 L812.4 1125.1 L811.0 1125.4 L809.4 1125.8 L807.8 1126.1 L806.1 1126.4 L804.3 1126.7 L802.4 1127.0 L800.4 1127.3 L798.4 1127.6 L796.2 1127.8 L794.1 1128.0 L791.9 1128.2 L789.6 1128.4 L787.3 1128.5 L784.9 1128.7 L782.5 1128.8 L780.1 1128.9 L777.7 1128.9 L775.2 1129.0 L772.7 1129.0 L770.3 1129.0 L767.8 1129.0 L765.3 1128.9 L762.9 1128.9 L760.5 1128.8 L758.1 1128.7 L755.7 1128.5 L753.4 1128.4 L751.1 1128.2 L748.9 1128.0 L746.7 1127.8 L744.6 1127.6 L742.6 1127.3 L740.6 1127.0 L738.7 1126.7 L736.9 1126.4 L735.2 1126.1 L733.6 1125.8 L732.0 1125.4 L730.6 1125.1 L729.3 1124.7 L728.0 1124.3 L726.9 1123.9 L725.9 1123.5 L725.0 1123.1 L724.2 1122.7 L723.5 1122.2 L723.0 1121.8 L722.6 1121.3 L722.2 1120.9 L722.1 1120.4 L722.0 1120.0" data-name="Vercel CLI"></path>
											<path d="M722.0 1052.0 L723.1 1053.9 L726.3 1055.7 L731.5 1057.3 L738.4 1058.7 L746.8 1059.8 L756.2 1060.6 L766.3 1061.0 L776.7 1061.0 L786.8 1060.6 L796.3 1059.8 L804.6 1058.7 L811.5 1057.3 L816.7 1055.7 L819.9 1053.9 L821.0 1052.0" fill="none" data-name="Vercel CLI"></path>
										</g>
										<g transform="translate(722, 990)" font-family="monospace" font-size="11pt" font-weight="bold" font-style="normal" data-name="Vercel CLI" data-compartment="0">
											<g transform="translate(12, 12)" fill="#333" text-align="center" data-name="Vercel CLI" data-compartment="0">
												<text x="37.5" y="27.5" stroke="none" text-anchor="middle" data-name="Vercel CLI" data-compartment="0">Vercel CLI</text>
												
											</g>
										</g>
										<g transform="translate(722, 1058)" font-family="monospace" font-size="11pt" font-weight="normal" font-style="normal" data-name="Vercel CLI" data-compartment="1">
											<g transform="translate(12, 12)" fill="#333" text-align="center" data-name="Vercel CLI" data-compartment="1">
												<text x="37.5" y="27.5" stroke="none" text-anchor="middle" data-name="Vercel CLI" data-compartment="1">npx vercel</text>
												
											</g>
										</g>
									</g>
									<g data-name="@saleor/configurator">
										<g fill="#fff" stroke="#333" data-name="@saleor/configurator">
											<rect x="861.0" y="984.0" height="136.0" width="176.0" stroke="none" data-name="@saleor/configurator"></rect>
											<path d="M861.0 984.0 L861.0 1120.0" fill="none" data-name="@saleor/configurator"></path>
											<path d="M1037.0 984.0 L1037.0 1120.0" fill="none" data-name="@saleor/configurator"></path>
											<ellipse cx="949.0" cy="984.0" rx="88.0" ry="9.0" data-name="@saleor/configurator"></ellipse>
											<path d="M1037.0 1120.0 L1036.9 1120.4 L1036.6 1120.9 L1036.0 1121.3 L1035.3 1121.8 L1034.3 1122.2 L1033.1 1122.7 L1031.7 1123.1 L1030.1 1123.5 L1028.3 1123.9 L1026.3 1124.3 L1024.1 1124.7 L1021.7 1125.1 L1019.1 1125.4 L1016.4 1125.8 L1013.5 1126.1 L1010.4 1126.4 L1007.2 1126.7 L1003.9 1127.0 L1000.4 1127.3 L996.7 1127.6 L993.0 1127.8 L989.1 1128.0 L985.2 1128.2 L981.1 1128.4 L977.0 1128.5 L972.8 1128.7 L968.6 1128.8 L964.3 1128.9 L959.9 1128.9 L955.6 1129.0 L951.2 1129.0 L946.8 1129.0 L942.4 1129.0 L938.1 1128.9 L933.7 1128.9 L929.4 1128.8 L925.2 1128.7 L921.0 1128.5 L916.8 1128.4 L912.8 1128.2 L908.9 1128.0 L905.0 1127.8 L901.3 1127.6 L897.6 1127.3 L894.1 1127.0 L890.8 1126.7 L887.6 1126.4 L884.5 1126.1 L881.6 1125.8 L878.9 1125.4 L876.3 1125.1 L873.9 1124.7 L871.7 1124.3 L869.7 1123.9 L867.9 1123.5 L866.3 1123.1 L864.9 1122.7 L863.7 1122.2 L862.7 1121.8 L862.0 1121.3 L861.4 1120.9 L861.1 1120.4 L861.0 1120.0" data-name="@saleor/configurator"></path>
											<path d="M861.0 1052.0 L862.9 1053.9 L868.6 1055.7 L877.8 1057.3 L890.1 1058.7 L905.0 1059.8 L921.8 1060.6 L939.8 1061.0 L958.2 1061.0 L976.2 1060.6 L993.0 1059.8 L1007.9 1058.7 L1020.2 1057.3 L1029.4 1055.7 L1035.1 1053.9 L1037.0 1052.0" fill="none" data-name="@saleor/configurator"></path>
										</g>
										<g transform="translate(861, 990)" font-family="monospace" font-size="11pt" font-weight="bold" font-style="normal" data-name="@saleor/configurator" data-compartment="0">
											<g transform="translate(12, 12)" fill="#333" text-align="center" data-name="@saleor/configurator" data-compartment="0">
												<text x="76.0" y="27.5" stroke="none" text-anchor="middle" data-name="@saleor/configurator" data-compartment="0">@saleor/configurator</text>
												
											</g>
										</g>
										<g transform="translate(861, 1058)" font-family="monospace" font-size="11pt" font-weight="normal" font-style="normal" data-name="@saleor/configurator" data-compartment="1">
											<g transform="translate(12, 12)" fill="#333" text-align="center" data-name="@saleor/configurator" data-compartment="1">
												<text x="76.0" y="27.5" stroke="none" text-anchor="middle" data-name="@saleor/configurator" data-compartment="1">npx configurator</text>
												
											</g>
										</g>
									</g>
								</g>
							</g>
						</g>
					</g>
				</g>
			</g>
		</g>
	</g>
</svg>